<?xml version="1.0" encoding="utf-8"?>
<!-- Generator: Adobe Illustrator 21.0.0, SVG Export Plug-In . SVG Version: 6.00 Build 0)  -->
<svg version="1.1" id="Layer_1" xmlns="http://www.w3.org/2000/svg" xmlns:xlink="http://www.w3.org/1999/xlink" x="0px" y="0px"
	 width="1400px" height="980px" viewBox="0 0 1400 980" style="enable-background:new 0 0 1400 980;" xml:space="preserve">
<style type="text/css">
	.st0{fill:#F3CEA0;}
	.st1{opacity:0.42;fill:#D6A774;}
	.st2{fill:#ED715F;}
	.st3{fill:#F27C70;}
	.st4{fill:#F3A599;}
	.st5{fill:#6E5252;}
	.st6{fill:#C96354;}
	.st7{fill:#FFFFFF;}
	.st8{fill:#E6E6E6;}
	.st9{fill:#F3F3F3;}
	.st10{fill:#986241;}
	.st11{fill:#CC8862;}
	.st12{fill:#38A1FC;}
	.st13{fill:#70BAF2;}
	.st14{fill:#1B89DB;}
	.st15{fill:#DBAC72;}
	.st16{fill:#FDD077;}
	.st17{fill:#C2975D;}
	.st18{fill:#FEE051;}
	.st19{fill:#FFB653;}
	.st20{fill:none;stroke:#6E5252;stroke-width:7;stroke-miterlimit:10;}
</style>
<rect class="st0" width="1400" height="980"/>
<path class="st1" d="M1043.5,381c-6.4,0-11.7,5.2-11.7,11.7c0,6.4,5.2,11.7,11.7,11.7h12v8.6c0,10.9,8.9,19.7,19.7,19.7h220.4
	c14.6,0,26.5-11.9,26.5-26.5V132.7c0-14.6-11.9-26.5-26.5-26.5h-220.4c-10.9,0-19.7,8.9-19.7,19.7v8.8h-12
	c-6.4,0-11.7,5.2-11.7,11.7c0,6.4,5.2,11.7,11.7,11.7h12V184h-12c-6.4,0-11.7,5.2-11.7,11.7c0,6.4,5.2,11.7,11.7,11.7h12v25.9h-12
	c-6.4,0-11.7,5.2-11.7,11.7c0,6.4,5.2,11.7,11.7,11.7h12v25.9h-12c-6.4,0-11.7,5.2-11.7,11.7c0,6.4,5.2,11.7,11.7,11.7h12v25.9h-12
	c-6.4,0-11.7,5.2-11.7,11.7c0,6.4,5.2,11.7,11.7,11.7h12V381H1043.5z"/>
<path class="st1" d="M1033.7,743.6h-21.2c-5.1-31.8-19.9-61.2-43.2-84.5c-29.1-29.1-67.8-45.1-108.9-45.1
	c-41.1,0-79.8,16-108.9,45.1c-29.1,29.1-45.1,67.8-45.1,108.9s16,79.8,45.1,108.9c29.1,29.1,67.8,45.1,108.9,45.1
	c41.1,0,79.8-16,108.9-45.1c23.1-23.1,38-52.3,43.1-83.9h21.3c13.6,0,24.7-11.1,24.7-24.7C1058.4,754.7,1047.3,743.6,1033.7,743.6z"
	/>
<path class="st1" d="M145.7,593.3h589.1c29.2,0,53-23.8,53-53V153.1c0-29.2-23.8-53-53-53H145.7c-29.2,0-53,23.8-53,53v387.2
	C92.7,569.6,116.5,593.3,145.7,593.3z"/>
<path class="st1" d="M883.7,277.3h53.9c23.4,0,42.4-19,42.4-42.4v-93.4c0-23.4-19-42.4-42.4-42.4h-53.9c-23.4,0-42.4,19-42.4,42.4
	v93.4C841.3,258.3,860.3,277.3,883.7,277.3z"/>
<path class="st1" d="M465,833.9h-38h-6H161.3c-0.8,0-1.6,0.3-2.2,0.8c-0.5,0-1.1,0-1.6,0.2l-63.4,17.1c-1.7,0.5-2.9,2-2.9,3.8v4.4
	c0,1.8,1.2,3.3,2.9,3.8l63.4,17.1c0.5,0.1,1.1,0.2,1.6,0.2c0.6,0.5,1.4,0.8,2.2,0.8h259.7h6h38c1.8,0,3.3-1.5,3.3-3.3v-41.3
	C468.3,835.4,466.9,833.9,465,833.9z"/>
<polygon class="st1" points="449.2,752.2 155.3,752.2 155.3,757.1 129.3,757.1 129.3,766.7 115.6,766.7 115.6,775.2 89.1,775.2 
	89.1,784.6 115.6,784.6 115.6,793.1 129.3,793.1 129.3,802.6 155.3,802.6 155.3,807.6 449.2,807.6 449.2,803 470.1,803 470.1,756.8 
	449.2,756.8 "/>
<path class="st1" d="M1118.9,451.5v4.9h-26V472h-31.7v11.7c0,8.6,7,15.7,15.7,15.7h16.1v15.7h26v4.9h206.3v-68.6H1118.9z"/>
<rect x="99.5" y="631.3" class="st1" width="531.2" height="92.2"/>
<path class="st1" d="M847.1,579.6h137.5c12.5,0,22.6-10.1,22.6-22.6V317.8c0-12.5-10.1-22.6-22.6-22.6H847.1
	c-12.5,0-22.6,10.1-22.6,22.6V557C824.5,569.4,834.6,579.6,847.1,579.6z"/>
<path class="st1" d="M1291.6,579.1c0,2-1.6,3.6-3.6,3.6s-3.6-1.6-3.6-3.6v-22.9H1255v22.9c0,2-1.6,3.6-3.6,3.6s-3.6-1.6-3.6-3.6
	v-22.9h-28.1v22.9c0,2-1.6,3.6-3.6,3.6s-3.6-1.6-3.6-3.6v-22.9h-28.7v22.9c0,2-1.6,3.6-3.6,3.6s-3.6-1.6-3.6-3.6v-22.9h-28v22.9
	c0,2-1.6,3.6-3.6,3.6c-2,0-3.6-1.6-3.6-3.6v-22.9H1111v22.9c0,2-1.6,3.6-3.6,3.6c-2,0-3.6-1.6-3.6-3.6v-22.9h-30.5v342.9h249V556.2
	h-30.7V579.1z"/>
<polygon class="st1" points="533.8,771 506.7,771 506.7,864.2 533.8,864.2 647.6,864.2 665.8,864.2 665.8,771 647.6,771 "/>
<g>
	<path class="st2" d="M1281.3,98.2h-220.4c-9.1,0-16.5,7.4-16.5,16.5v287c0,9.1,7.4,16.5,16.5,16.5h220.4
		c12.8,0,23.2-10.4,23.2-23.2V121.4C1304.5,108.6,1294.1,98.2,1281.3,98.2z"/>
	<path class="st2" d="M1281.3,98.2h-220.4c-9.1,0-16.5,7.4-16.5,16.5v287c0,9.1,7.4,16.5,16.5,16.5h220.4
		c12.8,0,23.2-10.4,23.2-23.2V121.4C1304.5,108.6,1294.1,98.2,1281.3,98.2z"/>
	<path class="st3" d="M1119.2,98.2h-58.2c-9.1,0-16.5,7.4-16.5,16.5v287c0,9.1,7.4,16.5,16.5,16.5h58.2V98.2z"/>
	<path class="st4" d="M1077,98.2h-16.1c-9.1,0-16.5,7.4-16.5,16.5v287c0,9.1,7.4,16.5,16.5,16.5h16.1V98.2z"/>
	<path class="st5" d="M1281.3,421.4h-220.4c-10.9,0-19.7-8.9-19.7-19.7v-287c0-10.9,8.9-19.7,19.7-19.7h220.4
		c14.6,0,26.5,11.9,26.5,26.5v273.5C1307.7,409.5,1295.9,421.4,1281.3,421.4z M1060.9,101.5c-7.3,0-13.2,5.9-13.2,13.2v287
		c0,7.3,5.9,13.2,13.2,13.2h220.4c11,0,20-9,20-20V121.4c0-11-9-20-20-20H1060.9z"/>
	<g>
		<g>
			<circle class="st5" cx="1071.5" cy="135.2" r="17"/>
			<g>
				<path class="st6" d="M1066.8,126.8h-37.6c-4.7,0-8.4,3.8-8.4,8.4v0c0,4.7,3.8,8.4,8.4,8.4h37.6c4.7,0,8.4-3.8,8.4-8.4v0
					C1075.3,130.5,1071.5,126.8,1066.8,126.8z"/>
				<path class="st5" d="M1066.8,146.9h-37.6c-6.4,0-11.7-5.2-11.7-11.7c0-6.4,5.2-11.7,11.7-11.7h37.6c6.4,0,11.7,5.2,11.7,11.7
					C1078.5,141.6,1073.3,146.9,1066.8,146.9z M1029.2,130c-2.9,0-5.2,2.3-5.2,5.2c0,2.9,2.3,5.2,5.2,5.2h37.6
					c2.9,0,5.2-2.3,5.2-5.2c0-2.9-2.3-5.2-5.2-5.2H1029.2z"/>
			</g>
		</g>
		<g>
			<circle class="st5" cx="1071.5" cy="184.4" r="17"/>
			<g>
				<path class="st6" d="M1066.8,176h-37.6c-4.7,0-8.4,3.8-8.4,8.4v0c0,4.7,3.8,8.4,8.4,8.4h37.6c4.7,0,8.4-3.8,8.4-8.4v0
					C1075.3,179.8,1071.5,176,1066.8,176z"/>
				<path class="st5" d="M1066.8,196.1h-37.6c-6.4,0-11.7-5.2-11.7-11.7c0-6.4,5.2-11.7,11.7-11.7h37.6c6.4,0,11.7,5.2,11.7,11.7
					C1078.5,190.9,1073.3,196.1,1066.8,196.1z M1029.2,179.3c-2.9,0-5.2,2.3-5.2,5.2c0,2.9,2.3,5.2,5.2,5.2h37.6
					c2.9,0,5.2-2.3,5.2-5.2c0-2.9-2.3-5.2-5.2-5.2H1029.2z"/>
			</g>
		</g>
		<g>
			<circle class="st5" cx="1071.5" cy="233.7" r="17"/>
			<g>
				<path class="st6" d="M1066.8,225.3h-37.6c-4.7,0-8.4,3.8-8.4,8.4v0c0,4.7,3.8,8.4,8.4,8.4h37.6c4.7,0,8.4-3.8,8.4-8.4v0
					C1075.3,229,1071.5,225.3,1066.8,225.3z"/>
				<path class="st5" d="M1066.8,245.4h-37.6c-6.4,0-11.7-5.2-11.7-11.7c0-6.4,5.2-11.7,11.7-11.7h37.6c6.4,0,11.7,5.2,11.7,11.7
					C1078.5,240.1,1073.3,245.4,1066.8,245.4z M1029.2,228.5c-2.9,0-5.2,2.3-5.2,5.2c0,2.9,2.3,5.2,5.2,5.2h37.6
					c2.9,0,5.2-2.3,5.2-5.2c0-2.9-2.3-5.2-5.2-5.2H1029.2z"/>
			</g>
		</g>
		<g>
			<circle class="st5" cx="1071.5" cy="282.9" r="17"/>
			<g>
				<path class="st6" d="M1066.8,274.5h-37.6c-4.7,0-8.4,3.8-8.4,8.4v0c0,4.7,3.8,8.4,8.4,8.4h37.6c4.7,0,8.4-3.8,8.4-8.4v0
					C1075.3,278.3,1071.5,274.5,1066.8,274.5z"/>
				<path class="st5" d="M1066.8,294.6h-37.6c-6.4,0-11.7-5.2-11.7-11.7c0-6.4,5.2-11.7,11.7-11.7h37.6c6.4,0,11.7,5.2,11.7,11.7
					C1078.5,289.4,1073.3,294.6,1066.8,294.6z M1029.2,277.7c-2.9,0-5.2,2.3-5.2,5.2c0,2.9,2.3,5.2,5.2,5.2h37.6
					c2.9,0,5.2-2.3,5.2-5.2c0-2.9-2.3-5.2-5.2-5.2H1029.2z"/>
			</g>
		</g>
		<g>
			<circle class="st5" cx="1071.5" cy="332.2" r="17"/>
			<g>
				<path class="st6" d="M1066.8,323.7h-37.6c-4.7,0-8.4,3.8-8.4,8.4l0,0c0,4.7,3.8,8.4,8.4,8.4h37.6c4.7,0,8.4-3.8,8.4-8.4l0,0
					C1075.3,327.5,1071.5,323.7,1066.8,323.7z"/>
				<path class="st5" d="M1066.8,343.8h-37.6c-6.4,0-11.7-5.2-11.7-11.7c0-6.4,5.2-11.7,11.7-11.7h37.6c6.4,0,11.7,5.2,11.7,11.7
					C1078.5,338.6,1073.3,343.8,1066.8,343.8z M1029.2,327c-2.9,0-5.2,2.3-5.2,5.2c0,2.9,2.3,5.2,5.2,5.2h37.6
					c2.9,0,5.2-2.3,5.2-5.2c0-2.9-2.3-5.2-5.2-5.2H1029.2z"/>
			</g>
		</g>
		<g>
			<circle class="st5" cx="1071.5" cy="381.4" r="17"/>
			<g>
				<path class="st6" d="M1066.8,373h-37.6c-4.7,0-8.4,3.8-8.4,8.4l0,0c0,4.7,3.8,8.4,8.4,8.4h37.6c4.7,0,8.4-3.8,8.4-8.4l0,0
					C1075.3,376.8,1071.5,373,1066.8,373z"/>
				<path class="st5" d="M1066.8,393.1h-37.6c-6.4,0-11.7-5.2-11.7-11.7c0-6.4,5.2-11.7,11.7-11.7h37.6c6.4,0,11.7,5.2,11.7,11.7
					C1078.5,387.9,1073.3,393.1,1066.8,393.1z M1029.2,376.2c-2.9,0-5.2,2.3-5.2,5.2c0,2.9,2.3,5.2,5.2,5.2h37.6
					c2.9,0,5.2-2.3,5.2-5.2c0-2.9-2.3-5.2-5.2-5.2H1029.2z"/>
			</g>
		</g>
	</g>
	<rect x="1107" y="126.4" class="st7" width="161.4" height="91.1"/>
</g>
<g>
	<circle class="st8" cx="846.1" cy="756.8" r="150.4"/>
	<path class="st5" d="M846.1,910.9c-41.1,0-79.8-16-108.9-45.1C708.1,836.7,692,798,692,756.8s16-79.8,45.1-108.9
		c29.1-29.1,67.8-45.1,108.9-45.1c41.1,0,79.8,16,108.9,45.1c29.1,29.1,45.1,67.8,45.1,108.9s-16,79.8-45.1,108.9
		C925.9,894.8,887.2,910.9,846.1,910.9z M846.1,610.1c-39.2,0-76,15.3-103.7,43c-27.7,27.7-43,64.6-43,103.7s15.3,76,43,103.7
		c27.7,27.7,64.6,43,103.7,43c39.2,0,76-15.3,103.7-43c27.7-27.7,43-64.6,43-103.7s-15.3-76-43-103.7
		C922.1,625.4,885.3,610.1,846.1,610.1z"/>
	<g>
		<path class="st9" d="M1019.4,736H916v42.1h103.3c11.6,0,21.1-9.4,21.1-21.1v0C1040.5,745.5,1031,736,1019.4,736z"/>
		<path class="st5" d="M1019.4,781.8h-107v-49.4h107c13.6,0,24.7,11.1,24.7,24.7S1033,781.8,1019.4,781.8z M919.7,774.5h99.7
			c9.6,0,17.4-7.8,17.4-17.4c0-9.6-7.8-17.4-17.4-17.4h-99.7V774.5z"/>
	</g>
	<circle class="st9" cx="846.1" cy="756.8" r="120.5"/>
	<circle class="st10" cx="846.1" cy="756.8" r="91.7"/>
	<path class="st11" d="M784.1,824.4c9.2,4.1,19.4,6.4,30.1,6.4c40.9,0,74-33.1,74-74c0-40.9-33.1-74-74-74
		c-10.7,0-20.9,2.3-30.1,6.4c-18.3,16.8-29.8,40.8-29.8,67.6C754.4,783.6,765.9,807.7,784.1,824.4z"/>
	<path class="st5" d="M846.1,881c-68.5,0-124.2-55.7-124.2-124.2s55.7-124.2,124.2-124.2s124.2,55.7,124.2,124.2
		S914.5,881,846.1,881z M846.1,640c-64.4,0-116.9,52.4-116.9,116.9s52.4,116.9,116.9,116.9s116.9-52.4,116.9-116.9
		S910.5,640,846.1,640z"/>
	<path class="st5" d="M846.1,852.2c-52.6,0-95.3-42.8-95.3-95.3c0-52.6,42.8-95.3,95.3-95.3c52.6,0,95.3,42.8,95.3,95.3
		C941.4,809.4,898.6,852.2,846.1,852.2z M846.1,668.8c-48.5,0-88,39.5-88,88c0,48.5,39.5,88,88,88c48.5,0,88-39.5,88-88
		C934.1,708.3,894.6,668.8,846.1,668.8z"/>
</g>
<g>
	<path class="st8" d="M720.5,577.5H131.4c-26.6,0-48.4-21.8-48.4-48.4V141.9c0-26.6,21.8-48.4,48.4-48.4h589.1
		c26.6,0,48.4,21.8,48.4,48.4v387.2C768.9,555.7,747.1,577.5,720.5,577.5z"/>
	<path class="st5" d="M720.5,582.1H131.4c-29.2,0-53-23.8-53-53V141.9c0-29.2,23.8-53,53-53h589.1c29.2,0,53,23.8,53,53v387.2
		C773.5,558.3,749.7,582.1,720.5,582.1z M131.4,98c-24.2,0-43.8,19.7-43.8,43.8v387.2c0,24.2,19.7,43.8,43.8,43.8h589.1
		c24.2,0,43.8-19.7,43.8-43.8V141.9c0-24.2-19.7-43.8-43.8-43.8H131.4z"/>
	<g>
		<path class="st7" d="M450.4,303c0-5.2,0.6-10.2,1.8-15c-4.9,2.3-8.9,4.7-11.4,6.2c-4.5,2.6-7.7,3.9-10.1,4.5
			c-2.4-0.6-5.7-1.9-10.1-4.5c-11.4-6.7-52-32.2-69.7,18.3c-17.7,50.5,26.2,140.9,53.8,127.9c18.1-8.5,22.9-11.2,26-12.4
			c3.1,1.1,7.9,3.8,26,12.4c19.1,9,46.2-31.9,55-74.6C477.7,365,450.4,337.2,450.4,303z"/>
		<path class="st7" d="M433.1,283c0,0-60.5-16.7-46.7-51.1C386.4,231.9,428.1,215.4,433.1,283z"/>
	</g>
</g>
<g>
	<path class="st8" d="M923.3,262.7h-53.9c-21.6,0-39.1-17.5-39.1-39.1v-93.4c0-21.6,17.5-39.1,39.1-39.1h53.9
		c21.6,0,39.1,17.5,39.1,39.1v93.4C962.3,245.3,944.8,262.7,923.3,262.7z"/>
	<path class="st5" d="M900.5,169.4h-8.4c-5,0-9-4-9-9V133c0-5,4-9,9-9h8.4c5,0,9,4,9,9v27.4C909.5,165.4,905.4,169.4,900.5,169.4z"
		/>
	<path class="st5" d="M923.3,266.1h-53.9c-23.4,0-42.4-19-42.4-42.4v-93.4c0-23.4,19-42.4,42.4-42.4h53.9c23.4,0,42.4,19,42.4,42.4
		v93.4C965.7,247.1,946.7,266.1,923.3,266.1z M869.3,94.6c-19.7,0-35.7,16-35.7,35.7v93.4c0,19.7,16,35.7,35.7,35.7h53.9
		c19.7,0,35.7-16,35.7-35.7v-93.4c0-19.7-16-35.7-35.7-35.7H869.3z"/>
</g>
<g>
	<g>
		
			<rect x="256.9" y="714.8" transform="matrix(6.123234e-17 -1 1 6.123234e-17 -568.6771 1124.5812)" class="st12" width="42.1" height="263.6"/>
		
			<rect x="271.3" y="729.3" transform="matrix(6.123234e-17 -1 1 6.123234e-17 -583.1115 1139.0156)" class="st13" width="13.2" height="263.6"/>
		
			<rect x="271.3" y="700.4" transform="matrix(6.123234e-17 -1 1 6.123234e-17 -554.2426 1110.1467)" class="st14" width="13.2" height="263.6"/>
		<path class="st5" d="M412.7,822.7v47.9H147c-2.1,0-3.8-1.7-3.8-3.8v-40.4c0-2.1,1.7-3.8,3.8-3.8H412.7z M406.8,864.7v-36.2H149.1
			v36.2H406.8z"/>
	</g>
	<g>
		
			<rect x="409.3" y="825.9" transform="matrix(-1.836970e-16 1 -1 -1.836970e-16 1277.0042 416.2542)" class="st3" width="42.1" height="41.4"/>
		
			<rect x="423.8" y="811.5" transform="matrix(-1.836970e-16 1 -1 -1.836970e-16 1262.5697 401.8197)" class="st2" width="13.2" height="41.4"/>
		
			<rect x="423.8" y="840.3" transform="matrix(-1.836970e-16 1 -1 -1.836970e-16 1291.4386 430.6886)" class="st4" width="13.2" height="41.4"/>
		<path class="st5" d="M454,826v41.3c0,1.8-1.5,3.3-3.3,3.3h-44v-47.9h44C452.5,822.7,454,824.1,454,826z M448.2,864.7v-36.2h-35.6
			v36.2H448.2z"/>
	</g>
	<g>
		<path class="st15" d="M147,825.6v42.1l-66.5-17.9c-0.4-0.1-0.7-0.5-0.7-1v-4.4c0-0.4,0.3-0.8,0.7-1L147,825.6z"/>
		<path class="st16" d="M147,854.5v13.2l-66.5-17.9c-0.4-0.1-0.7-0.5-0.7-1l0,0c0-0.6,0.5-1,1.1-1L147,854.5z"/>
		<path class="st17" d="M147,825.6v13.2l-66.1,6.6c-0.6,0.1-1.1-0.4-1.1-1l0,0c0-0.4,0.3-0.8,0.7-1L147,825.6z"/>
		<path class="st5" d="M149.9,828.8v35.7c0,1.7-0.8,3.2-2.1,4.3c-1.3,1-3,1.4-4.7,0.9l-63.4-17.1c-1.7-0.5-2.9-2-2.9-3.8v-4.4
			c0-1.8,1.2-3.3,2.9-3.8l63.4-17.1c1.6-0.4,3.3-0.1,4.7,0.9C149.2,825.5,149.9,827.1,149.9,828.8z M144.1,863.9v-34.5l-61.4,16.5
			v1.4L144.1,863.9z"/>
	</g>
	<path class="st5" d="M80.5,843.5c-0.4,0.1-0.7,0.5-0.7,1v1.1v2.2v1.1c0,0.4,0.3,0.8,0.7,1l34.1,9.2v-7.7V842v-7.7L80.5,843.5z"/>
</g>
<g>
	
		<rect x="263.2" y="624.6" transform="matrix(6.123234e-17 -1 1 6.123234e-17 -480.719 1056.5613)" class="st18" width="49.5" height="288.1"/>
	
		<rect x="111.1" y="755.6" transform="matrix(6.123234e-17 -1 1 6.123234e-17 -637.7639 899.5163)" class="st19" width="39.6" height="26"/>
	
		<rect x="100.8" y="761.7" transform="matrix(6.123234e-17 -1 1 6.123234e-17 -657.5498 879.7305)" class="st19" width="20.6" height="13.8"/>
	
		<rect x="84.8" y="753.9" transform="matrix(6.123234e-17 -1 1 6.123234e-17 -679.1705 858.1097)" class="st5" width="9.4" height="29.4"/>
	
		<rect x="422.2" y="758.2" transform="matrix(6.123234e-17 -1 1 6.123234e-17 -326.246 1211.0342)" class="st19" width="40.3" height="20.9"/>
	<path class="st5" d="M434.9,741v55.3H141V741H434.9z M429,790.5v-43.6H146.8v43.6H429z"/>
	<path class="st5" d="M146.8,745.9v45.5h-31.9v-45.5H146.8z M141,785.5v-33.8h-20.2v33.8H141z"/>
	<path class="st5" d="M120.9,755.4v26.5h-19.7v-26.5H120.9z M115.1,776v-14.8h-8V776H115.1z"/>
	<path class="st5" d="M455.8,745.5v46.2H429v-46.2H455.8z M449.9,785.9v-34.5h-15v34.5H449.9z"/>
</g>
<rect x="1176.4" y="374.2" transform="matrix(6.123234e-17 -1 1 6.123234e-17 733.2535 1682.229)" class="st13" width="62.7" height="200.5"/>
<rect x="1068.1" y="461.5" transform="matrix(6.123234e-17 -1 1 6.123234e-17 619.9932 1568.9688)" class="st14" width="52.9" height="26"/>
<path class="st5" d="M1310.9,440.2v68.6h-206.3v-68.6H1310.9z M1305.1,502.9v-56.9h-194.6v56.9H1305.1z"/>
<path class="st5" d="M1110.4,445.1v58.7h-31.9v-58.7H1110.4z M1104.6,498v-47h-20.2v47H1104.6z"/>
<path class="st5" d="M1078.7,460.7v27.4h-16.2c-8.6,0-15.7-7-15.7-15.7v-11.7H1078.7z"/>
<g>
	<rect x="89.1" y="624" class="st19" width="523.6" height="84.3"/>
	<path class="st7" d="M442,670.2H259.7c-6.1,0-11,4.9-11,11v2.7c0,6.1,4.9,11,11,11H442c6.1,0,11-4.9,11-11v-2.7
		C453,675.1,448.1,670.2,442,670.2z"/>
	<path class="st5" d="M442.2,698.8H259.5c-8.1,0-14.7-6.8-14.7-15.1v-2.3c0-8.3,6.6-15.1,14.7-15.1h182.7c8.1,0,14.7,6.8,14.7,15.1
		v2.3C456.8,692,450.3,698.8,442.2,698.8z M259.5,674.2c-3.8,0-7,3.2-7,7.2v2.3c0,4,3.1,7.2,7,7.2h182.7c3.8,0,7-3.2,7-7.2v-2.3
		c0-4-3.1-7.2-7-7.2H259.5z"/>
	<path class="st5" d="M616.5,712.2H85.2v-92.2h531.2V712.2z M92.9,704.3h515.9V628H92.9V704.3z"/>
	<rect x="106.4" y="626.1" class="st5" width="7.7" height="27.5"/>
	<rect x="126.5" y="626.1" class="st5" width="7.7" height="15"/>
	<rect x="146.6" y="626.1" class="st5" width="7.7" height="15"/>
	<rect x="166.6" y="626.1" class="st5" width="7.7" height="15"/>
	<rect x="186.7" y="626.1" class="st5" width="7.7" height="27.5"/>
	<rect x="206.7" y="626.1" class="st5" width="7.7" height="15"/>
	<rect x="226.8" y="626.1" class="st5" width="7.7" height="15"/>
	<rect x="246.8" y="626.1" class="st5" width="7.7" height="15"/>
	<rect x="266.9" y="626.1" class="st5" width="7.7" height="27.5"/>
	<rect x="287" y="626.1" class="st5" width="7.7" height="15"/>
	<rect x="307" y="626.1" class="st5" width="7.7" height="15"/>
	<rect x="327.1" y="626.1" class="st5" width="7.7" height="15"/>
	<rect x="347.1" y="626.1" class="st5" width="7.7" height="27.5"/>
	<rect x="367.2" y="626.1" class="st5" width="7.7" height="15"/>
	<rect x="387.3" y="626.1" class="st5" width="7.7" height="15"/>
	<rect x="407.3" y="626.1" class="st5" width="7.7" height="15"/>
	<rect x="427.4" y="626.1" class="st5" width="7.7" height="27.5"/>
	<rect x="447.4" y="626.1" class="st5" width="7.7" height="15"/>
	<rect x="467.5" y="626.1" class="st5" width="7.7" height="15"/>
	<rect x="487.5" y="626.1" class="st5" width="7.7" height="15"/>
	<rect x="507.6" y="626.1" class="st5" width="7.7" height="27.5"/>
	<rect x="527.7" y="626.1" class="st5" width="7.7" height="15"/>
	<rect x="547.7" y="626.1" class="st5" width="7.7" height="15"/>
	<rect x="567.8" y="626.1" class="st5" width="7.7" height="15"/>
	<rect x="587.8" y="626.1" class="st5" width="7.7" height="27.5"/>
</g>
<g>
	<path class="st8" d="M970.2,287.1H832.7c-10.7,0-19.4,8.7-19.4,19.4v239.2c0,10.7,8.7,19.4,19.4,19.4h137.5
		c10.7,0,19.4-8.7,19.4-19.4V306.5C989.6,295.8,980.9,287.1,970.2,287.1z M973,512.8c0,4.6-3.8,8.4-8.4,8.4H838.3
		c-4.6,0-8.4-3.8-8.4-8.4V306.5c0-1.5,1.3-2.8,2.8-2.8h137.5c1.5,0,2.8,1.3,2.8,2.8V512.8z"/>
	<path class="st13" d="M970.2,303.7H832.7c-1.5,0-2.8,1.3-2.8,2.8v206.3c0,4.6,3.8,8.4,8.4,8.4h126.2c4.6,0,8.4-3.8,8.4-8.4V306.5
		C973,305,971.8,303.7,970.2,303.7z"/>
	<path class="st5" d="M970.2,568.3H832.7c-12.5,0-22.6-10.1-22.6-22.6V306.5c0-12.5,10.1-22.6,22.6-22.6h137.5
		c12.5,0,22.6,10.1,22.6,22.6v239.2C992.8,558.2,982.7,568.3,970.2,568.3z M832.7,290.3c-9,0-16.2,7.3-16.2,16.2v239.2
		c0,9,7.3,16.2,16.2,16.2h137.5c9,0,16.2-7.3,16.2-16.2V306.5c0-9-7.3-16.2-16.2-16.2H832.7z"/>
	<path class="st5" d="M964.6,524.4H838.3c-6.4,0-11.6-5.2-11.6-11.6V306.5c0-3.3,2.7-6,6-6h137.5c3.3,0,6,2.7,6,6v206.3
		C976.2,519.2,971,524.4,964.6,524.4z M833.1,306.9v205.9c0,2.9,2.4,5.2,5.2,5.2h126.2c2.9,0,5.2-2.4,5.2-5.2V306.9H833.1z"/>
	<circle class="st5" cx="901.5" cy="544.3" r="11.5"/>
</g>
<g>
	<path class="st7" d="M1280.7,548.4v19.5c0,3.9-3.2,7-7,7c-3.9,0-7-3.2-7-7v-19.5h-22.5v19.5c0,3.9-3.2,7-7,7h0c-3.9,0-7-3.2-7-7
		v-19.5h-21.3v19.5c0,3.9-3.2,7-7,7s-7-3.2-7-7v-19.5h-21.9v19.5c0,3.9-3.2,7-7,7c-3.9,0-7-3.2-7-7v-19.5h-21.2v19.5
		c0,3.9-3.2,7-7,7c-3.9,0-7-3.2-7-7v-19.5h-23.3v19.5c0,3.9-3.2,7-7,7l0,0c-3.9,0-7-3.2-7-7v-19.5h-23.7v336.1h242.2V548.4H1280.7z"
		/>
	<path class="st5" d="M1308,887.9h-249V545h30.5v22.9c0,2,1.6,3.6,3.6,3.6c2,0,3.6-1.6,3.6-3.6V545h30.1v22.9c0,2,1.6,3.6,3.6,3.6
		c2,0,3.6-1.6,3.6-3.6V545h28v22.9c0,2,1.6,3.6,3.6,3.6c2,0,3.6-1.6,3.6-3.6V545h28.7v22.9c0,2,1.6,3.6,3.6,3.6s3.6-1.6,3.6-3.6V545
		h28.1v22.9c0,2,1.6,3.6,3.6,3.6c2,0,3.6-1.6,3.6-3.6V545h29.4v22.9c0,2,1.6,3.6,3.6,3.6c2,0,3.6-1.6,3.6-3.6V545h30.7V887.9z
		 M1065.8,881h235.4V551.8h-17v16c0,5.8-4.7,10.5-10.5,10.5c-5.8,0-10.5-4.7-10.5-10.5v-16h-15.7v16c0,5.8-4.7,10.5-10.5,10.5
		s-10.5-4.7-10.5-10.5v-16h-14.5v16c0,5.8-4.7,10.5-10.5,10.5s-10.5-4.7-10.5-10.5v-16h-15.1v16c0,5.8-4.7,10.5-10.5,10.5
		c-5.8,0-10.5-4.7-10.5-10.5v-16h-14.3v16c0,5.8-4.7,10.5-10.5,10.5s-10.5-4.7-10.5-10.5v-16h-16.4v16c0,5.8-4.7,10.5-10.5,10.5
		s-10.5-4.7-10.5-10.5v-16h-16.8V881z"/>
	<rect x="1083" y="604.3" class="st5" width="123.1" height="7.6"/>
	<rect x="1083" y="628.1" class="st5" width="197.8" height="7.6"/>
	<rect x="1083" y="652.2" class="st5" width="197.8" height="7.6"/>
	<rect x="1083" y="676" class="st5" width="197.8" height="7.6"/>
	<rect x="1083" y="709.8" class="st5" width="98.9" height="7.6"/>
	<rect x="1083" y="733.5" class="st5" width="197.8" height="7.6"/>
	<rect x="1083" y="757.7" class="st5" width="197.8" height="7.6"/>
	<rect x="1083" y="781.4" class="st5" width="197.8" height="7.6"/>
	<rect x="1083" y="805.6" class="st5" width="118.2" height="7.6"/>
	<rect x="1083" y="829.3" class="st5" width="197.8" height="7.6"/>
	<rect x="1083" y="853.4" class="st5" width="197.8" height="7.6"/>
</g>
<g>
	<rect x="495.2" y="760.6" class="st7" width="152" height="86"/>
	<rect x="518.8" y="757" class="st13" width="113.8" height="93.2"/>
	<rect x="518.8" y="757" class="st20" width="113.8" height="93.2"/>
	<rect x="538.7" y="785.3" class="st7" width="74.1" height="7.7"/>
	<rect x="547.2" y="801.6" class="st7" width="59" height="7.8"/>
	<path class="st5" d="M654.4,853.8H488.1V753.4h166.3V853.8z M495.2,846.6h152v-86h-152V846.6z"/>
</g>
</svg>

